<?xml version="1.0" standalone="no"?>
<!DOCTYPE svg PUBLIC "-//W3C//DTD SVG 20010904//EN"
 "http://www.w3.org/TR/2001/REC-SVG-20010904/DTD/svg10.dtd">
<svg version="1.0" xmlns="http://www.w3.org/2000/svg"
 width="500.000000pt" height="500.000000pt" viewBox="0 0 500.000000 500.000000"
 preserveAspectRatio="xMidYMid meet">

<g transform="translate(0.000000,500.000000) scale(0.100000,-0.100000)"
fill="#000000" stroke="none">
<path d="M2110 3894 c-30 -8 -73 -25 -95 -39 -58 -34 -132 -117 -163 -183
l-27 -57 -5 -545 c-3 -300 -9 -552 -13 -561 -7 -14 8 -17 119 -22 70 -4 130
-5 133 -2 2 3 -1 34 -7 69 -16 85 -17 933 -1 1008 20 95 81 148 171 148 102 0
158 -70 158 -197 l0 -73 110 0 110 0 0 70 c0 144 67 214 190 197 54 -7 94 -38
122 -95 l23 -47 0 -537 0 -538 128 0 c70 0 127 3 127 6 0 3 -6 15 -12 27 -10
17 -14 156 -18 562 l-5 540 -32 66 c-99 202 -361 279 -576 170 l-57 -30 -64
30 c-103 48 -215 60 -316 33z"/>
<path d="M2367 3270 c-63 -24 -112 -63 -150 -116 -32 -45 -58 -109 -49 -119 3
-3 44 -5 92 -5 l86 0 17 35 c58 121 267 78 267 -55 0 -35 -6 -37 -125 -46
-172 -13 -284 -60 -336 -142 -25 -40 -29 -56 -29 -116 0 -55 5 -80 23 -111 80
-141 305 -167 436 -49 l51 46 0 -51 0 -51 95 0 95 0 0 237 c0 247 -10 343 -41
405 -28 55 -96 116 -156 138 -72 27 -208 27 -276 0z m263 -478 c0 -83 -42
-140 -120 -163 -83 -25 -170 24 -170 95 0 37 15 58 60 81 28 15 125 32 193 34
l37 1 0 -48z"/>
<path d="M1555 2219 c-3 -4 -1 -10 5 -14 5 -3 10 -16 10 -28 0 -34 -175 -556
-193 -578 -10 -10 -17 -21 -17 -24 0 -3 34 -5 76 -5 69 0 75 2 68 18 -15 34
-15 89 -1 138 l14 49 93 0 93 0 19 -65 c11 -36 17 -82 14 -102 l-4 -38 89 0
c49 0 89 2 89 5 0 3 -9 18 -20 33 -11 15 -58 144 -104 287 -118 361 -102 325
-144 326 -21 1 -47 3 -60 4 -12 1 -25 -1 -27 -6z m93 -262 c18 -61 32 -115 32
-119 0 -5 -31 -8 -70 -8 -76 0 -76 0 -60 60 5 19 16 64 25 99 27 111 32 109
73 -32z"/>
<path d="M2982 2222 c-94 -30 -149 -150 -106 -235 24 -47 40 -63 142 -138 98
-73 117 -102 107 -155 -8 -43 -36 -65 -88 -71 -58 -7 -111 19 -144 69 -14 21
-30 38 -34 38 -5 0 -9 -29 -9 -65 0 -63 1 -65 33 -82 23 -12 56 -17 117 -18
75 0 90 3 132 28 91 53 124 159 75 239 -22 37 -71 82 -137 128 -61 43 -82 64
-96 98 -28 65 33 135 103 117 16 -4 47 -27 71 -52 24 -25 45 -43 46 -41 2 1 6
27 9 56 6 48 4 53 -19 69 -28 18 -161 28 -202 15z"/>
<path d="M610 2213 c0 -5 7 -19 16 -31 13 -19 15 -58 13 -260 -2 -222 -7 -269
-34 -334 -6 -16 0 -18 64 -18 39 0 71 2 71 5 0 4 -7 19 -15 35 -11 21 -15 72
-16 214 -1 103 0 189 3 191 3 3 30 -43 61 -102 102 -194 132 -246 142 -250 6
-2 55 86 110 194 l100 198 3 -209 c2 -170 0 -214 -13 -239 -8 -16 -15 -32 -15
-34 0 -1 41 -3 90 -3 50 0 90 2 90 5 0 4 -7 19 -15 34 -11 22 -14 83 -16 289
-1 227 1 265 15 286 9 14 16 28 16 31 0 3 -30 5 -67 5 l-68 0 -95 -187 c-52
-102 -100 -188 -106 -190 -6 -2 -14 4 -17 14 -3 10 -46 95 -95 188 l-88 170
-67 3 c-37 2 -67 -1 -67 -5z"/>
<path d="M1980 2213 c1 -5 7 -19 15 -33 21 -37 21 -533 0 -574 -8 -15 -15 -30
-15 -32 0 -2 41 -4 91 -4 90 0 91 0 84 23 -19 62 -24 139 -22 341 2 192 4 225
20 249 9 14 17 29 17 32 0 3 -43 5 -95 5 -52 0 -95 -3 -95 -7z"/>
<path d="M2260 2215 c0 -3 7 -17 16 -30 14 -22 16 -59 12 -287 -3 -226 -6
-268 -21 -295 l-18 -33 76 0 c41 0 75 2 75 5 0 4 -6 18 -14 33 -10 19 -16 87
-22 225 -4 108 -5 197 -2 197 2 0 74 -103 159 -230 147 -218 156 -229 186
-230 l32 0 3 288 c3 250 5 291 21 321 9 19 17 36 17 38 0 1 -31 3 -70 3 -38 0
-70 -2 -70 -5 0 -4 7 -19 15 -35 13 -24 15 -64 13 -206 l-3 -176 -140 211
-140 211 -62 0 c-35 0 -63 -2 -63 -5z"/>
<path d="M3450 2212 c0 -4 5 -13 12 -20 12 -12 9 -24 -103 -366 -42 -130 -76
-218 -90 -232 l-22 -24 77 0 c73 0 77 1 71 21 -11 33 -7 101 7 144 l13 40 91
3 92 3 22 -83 c17 -63 20 -86 11 -100 -6 -10 -11 -20 -11 -23 0 -3 43 -5 96
-5 l95 0 -18 24 c-10 13 -64 159 -118 324 l-100 302 -62 0 c-35 0 -63 -4 -63
-8z m94 -254 c19 -61 33 -115 30 -120 -6 -9 -127 -11 -136 -2 -9 9 55 234 66
234 3 0 21 -50 40 -112z"/>
<path d="M3870 2213 c1 -5 7 -19 15 -33 21 -37 22 -547 0 -576 -8 -10 -15 -22
-15 -26 0 -5 43 -8 95 -8 52 0 95 3 95 7 0 3 -8 15 -17 26 -14 15 -19 42 -21
126 -4 106 -4 108 19 114 13 3 24 5 25 4 1 -1 22 -45 47 -97 54 -114 79 -148
123 -166 30 -13 144 -20 144 -10 0 3 -24 29 -53 58 -34 34 -70 87 -101 147
l-49 95 24 15 c139 88 132 255 -13 316 -28 11 -74 15 -178 15 -77 0 -140 -3
-140 -7z m257 -65 c26 -13 63 -83 63 -118 0 -72 -68 -140 -139 -140 l-31 0 0
133 c0 74 3 137 7 140 8 9 71 -1 100 -15z"/>
<path d="M930 1261 l0 -91 55 0 c42 0 55 3 55 15 0 10 -10 15 -34 15 -22 0
-36 6 -40 16 -9 23 2 34 35 34 16 0 29 4 29 9 0 11 -25 21 -51 21 -12 0 -19 7
-19 19 0 16 8 20 38 23 55 5 45 23 -15 26 l-53 3 0 -90z"/>
<path d="M1170 1260 c0 -75 3 -90 15 -90 13 0 16 11 14 50 -2 27 0 52 3 56 4
3 25 -20 47 -50 23 -31 46 -56 51 -56 6 0 10 39 10 90 0 72 -3 90 -15 90 -10
0 -15 -15 -17 -57 l-3 -58 -40 57 c-56 81 -65 77 -65 -32z"/>
<path d="M1430 1335 c0 -9 9 -15 25 -15 24 0 25 -2 25 -75 0 -60 3 -75 15 -75
12 0 15 15 15 75 l0 75 30 0 c20 0 30 5 30 15 0 12 -14 15 -70 15 -56 0 -70
-3 -70 -15z"/>
<path d="M1680 1260 l0 -91 55 3 c63 3 79 21 23 26 -33 3 -38 7 -38 28 0 20 5
24 30 24 20 0 30 5 30 15 0 10 -10 15 -30 15 -23 0 -30 4 -30 20 0 16 7 20 35
20 24 0 35 5 35 15 0 12 -13 15 -55 15 l-55 0 0 -90z"/>
<path d="M1920 1260 c0 -83 1 -90 20 -90 16 0 20 7 20 35 0 19 5 35 10 35 6 0
20 -16 31 -35 12 -19 27 -35 35 -35 18 0 18 6 -3 40 -15 26 -15 29 0 45 43 43
4 95 -70 95 l-43 0 0 -90z m94 44 c8 -21 -11 -44 -35 -44 -14 0 -19 7 -19 30
0 25 4 30 24 30 13 0 27 -7 30 -16z"/>
<path d="M2160 1335 c0 -8 9 -15 20 -15 18 0 20 -7 20 -75 0 -68 2 -75 20 -75
18 0 20 7 20 75 0 73 1 75 25 75 16 0 25 6 25 15 0 12 -14 15 -65 15 -51 0
-65 -3 -65 -15z"/>
<path d="M2444 1339 c-3 -6 -19 -47 -34 -90 -21 -59 -25 -79 -15 -79 8 0 17 5
20 10 3 6 0 10 -7 10 -9 0 -9 3 2 10 8 5 32 10 53 10 31 0 40 -4 44 -20 3 -11
14 -20 24 -20 19 0 20 -2 -40 153 -11 28 -34 36 -47 16z m39 -101 c-6 -11 -31
-10 -37 1 -4 5 -1 22 5 38 l11 28 13 -30 c7 -16 11 -33 8 -37z"/>
<path d="M2670 1260 c0 -73 3 -90 15 -90 12 0 15 17 15 90 0 73 -3 90 -15 90
-12 0 -15 -17 -15 -90z"/>
<path d="M2840 1260 c0 -72 3 -90 15 -90 10 0 15 15 17 58 l3 57 44 -57 c24
-32 47 -58 52 -58 5 0 9 41 9 90 0 72 -3 90 -15 90 -10 0 -15 -15 -17 -56 l-3
-57 -39 57 c-55 81 -66 75 -66 -34z"/>
<path d="M3120 1260 c0 -73 3 -90 15 -90 12 0 15 14 15 63 l1 62 30 -35 29
-35 30 35 30 35 0 -63 c0 -55 2 -63 18 -60 17 3 20 34 13 151 -1 33 -25 36
-42 5 -6 -12 -20 -30 -29 -40 -17 -18 -18 -18 -50 21 -50 64 -60 56 -60 -49z"/>
<path d="M3440 1261 l0 -91 55 0 c42 0 55 3 55 15 0 11 -11 15 -41 15 -36 0
-40 2 -37 23 2 17 11 23 36 25 42 4 37 26 -6 30 -24 2 -32 8 -32 22 0 14 9 20
38 22 55 5 45 23 -15 26 l-53 3 0 -90z"/>
<path d="M3672 1263 c3 -77 5 -88 22 -91 17 -4 19 1 13 52 -3 31 -2 56 3 56 4
0 26 -25 49 -55 23 -30 46 -55 51 -55 6 0 10 39 10 90 0 72 -3 90 -15 90 -10
0 -15 -15 -17 -57 l-3 -58 -39 58 c-25 36 -46 57 -58 57 -18 0 -19 -7 -16 -87z"/>
<path d="M3940 1335 c0 -9 9 -15 25 -15 24 0 25 -2 25 -75 0 -60 3 -75 15 -75
8 0 16 7 16 15 1 8 3 20 4 25 1 6 3 33 4 60 1 43 4 50 21 50 11 0 20 7 20 15
0 12 -14 15 -65 15 -51 0 -65 -3 -65 -15z"/>
</g>
</svg>
